<?xml version="1.0" encoding="UTF-8"?>
<svg xmlns="http://www.w3.org/2000/svg" viewBox="0 0 900 450">
  <defs>
    <style>
      .outline{fill:#1e293b; stroke:#0f172a; stroke-width:0.6}
      .sea{fill:#0a1a2b}
      .land{fill:#1e293b}
      .graticule{fill:none; stroke:#0b2238; stroke-width:0.5}
    </style>
  </defs>
  <rect class="sea" x="0" y="0" width="900" height="450"/>
  <!-- super grossière esquisse: Europe (FR), Japon (JP), Brésil (BR), Australie (AU), Égypte (EG) -->
  <g id="grids">
    <path class="graticule" d="M450 0V450M0 225H900"/>
  </g>
  <g id="countries">
    <g id="FR" class="outline">
      <title>France</title>
      <path d="M 420 170 L 440 170 L 448 180 L 442 190 L 426 192 L 416 182 Z"/>
    </g>
    <g id="JP" class="outline">
      <title>Japon</title>
      <path d="M 750 190 L 755 200 L 748 210 L 740 205 L 742 195 Z"/>
    </g>
    <g id="BR" class="outline">
      <title>Brésil</title>
      <path d="M 370 270 L 410 260 L 430 280 L 420 310 L 380 305 Z"/>
    </g>
    <g id="EG" class="outline">
      <title>Égypte</title>
      <path d="M 470 210 L 500 210 L 500 230 L 470 230 Z"/>
    </g>
    <g id="AU" class="outline">
      <title>Australie</title>
      <path d="M 700 340 L 760 340 L 780 360 L 740 380 L 690 370 Z"/>
    </g>
  </g>
</svg>
